<?xml version="1.0" encoding="UTF-8"?>
<svg id="Layer_2" data-name="Layer 2" xmlns="http://www.w3.org/2000/svg" viewBox="0 0 100 100">
  <defs>
    <style>
      .cls-1 {
        stroke-width: 0px;
      }
    </style>
  </defs>
  <path class="cls-1" d="M98,15.1l-13.7,55.3c-1.3,5.1-2.2,6.9-3.7,8.7-1.5,1.9-3.2,3.3-5.4,4.3-2.1,1-4.1,1.5-9.1,1.5H14.2c-5.1,0-6.8-.5-8.4-1.5-1.6-1-2.7-2.4-3.2-4.3-.5-1.9-.6-3.7.6-8.7L17,15.1h26.5l-13.1,52.8c-.5,2-.5,2.8-.3,3.5.2.7.6,1.3,1.3,1.7.6.4,1.3.6,3.3.6h16.3c2,0,2.8-.2,3.6-.6.9-.4,1.6-1,2.1-1.7.6-.8,1-1.5,1.5-3.5l13.1-52.8h26.5Z"/>
</svg>